<?xml version="1.0" encoding="UTF-8" standalone="no"?>
<!DOCTYPE svg PUBLIC "-//W3C//DTD SVG 1.1//EN" "http://www.w3.org/Graphics/SVG/1.1/DTD/svg11.dtd">
<svg xmlns="http://www.w3.org/2000/svg" version="1.1" viewBox="0.00 0.00 331.00 357.00">
<g stroke-width="2.00" fill="none" stroke-linecap="butt">
<path stroke="#896199" vector-effect="non-scaling-stroke" d="
  M 190.87 49.75
  L 191.30 42.17
  Q 191.33 41.68 191.06 41.27
  C 180.55 24.71 164.70 32.59 155.33 44.56
  A 1.08 1.08 0.0 0 1 153.90 44.80
  Q 153.63 44.63 153.38 44.12
  Q 153.21 43.78 153.26 43.32
  Q 153.44 41.74 153.50 40.14
  C 153.64 36.46 156.87 32.51 153.83 29.04
  Q 150.88 25.67 145.94 27.86"
/>
<path stroke="#170c86" vector-effect="non-scaling-stroke" d="
  M 145.94 27.86
  Q 145.58 27.74 145.29 27.42
  Q 144.89 26.99 145.30 26.57
  L 145.51 26.36
  Q 145.73 26.14 145.67 25.83
  L 143.70 15.75
  A 1.63 1.62 -17.7 0 0 141.44 14.59
  Q 135.96 17.06 132.21 22.34
  C 129.59 26.03 128.17 31.37 126.45 35.95
  C 125.38 38.81 124.20 39.15 121.84 37.12
  Q 111.16 27.97 105.43 18.88"
/>
<path stroke="#8c64a4" vector-effect="non-scaling-stroke" d="
  M 145.94 27.86
  C 142.80 31.13 142.23 36.27 142.20 40.63
  A 1.50 1.50 0.0 0 1 142.00 41.34
  L 138.52 47.29"
/>
<path stroke="#8d5a99" vector-effect="non-scaling-stroke" d="
  M 138.52 47.29
  Q 126.25 69.84 115.06 91.56
  Q 114.80 92.06 114.04 92.06"
/>
<path stroke="#8c407a" vector-effect="non-scaling-stroke" d="
  M 114.04 92.06
  Q 113.34 91.87 113.06 92.06
  Q 76.53 118.13 48.81 153.54"
/>
<path stroke="#ffaeac" vector-effect="non-scaling-stroke" d="
  M 151.93 85.58
  Q 137.16 70.42 138.52 47.29"
/>
<path stroke="#ff8a82" vector-effect="non-scaling-stroke" d="
  M 147.56 94.76
  Q 146.04 99.31 143.44 100.46
  C 136.24 103.63 122.21 103.66 115.71 97.54
  Q 113.27 95.23 114.04 92.06"
/>
<path stroke="#fe948d" vector-effect="non-scaling-stroke" d="
  M 124.71 245.72
  Q 105.09 249.25 85.03 247.56
  C 72.49 246.50 59.50 242.29 47.02 238.50"
/>
<path stroke="#ffb8b1" vector-effect="non-scaling-stroke" d="
  M 47.02 238.50
  C 54.40 219.63 67.16 200.26 78.33 184.60
  Q 78.48 184.39 78.23 184.47
  Q 78.09 184.51 77.95 184.57
  Q 77.68 184.68 77.47 184.94
  Q 57.79 209.05 41.38 236.66"
/>
<path stroke="#fe948d" vector-effect="non-scaling-stroke" d="
  M 41.38 236.66
  L 7.98 226.18"
/>
<path stroke="#855382" vector-effect="non-scaling-stroke" d="
  M 243.56 277.33
  L 225.51 277.36"
/>
<path stroke="#845d8d" vector-effect="non-scaling-stroke" d="
  M 225.51 277.36
  Q 216.79 276.82 209.43 277.73"
/>
<path stroke="#12087a" vector-effect="non-scaling-stroke" d="
  M 209.43 277.73
  Q 208.49 277.88 208.02 277.45
  A 0.75 0.72 -22.2 0 0 207.51 277.25
  L 162.00 277.25
  Q 161.85 277.25 161.75 277.12
  Q 161.66 277.00 161.46 276.95"
/>
<path stroke="#2825a8" vector-effect="non-scaling-stroke" d="
  M 161.46 276.95
  L 166.10 266.54"
/>
<path stroke="#845d8d" vector-effect="non-scaling-stroke" d="
  M 166.10 266.54
  L 171.84 254.56"
/>
<path stroke="#2825a8" vector-effect="non-scaling-stroke" d="
  M 256.5245 233.0620
  A 12.70 7.68 107.2 0 0 267.6165 223.2010
  A 12.70 7.68 107.2 0 0 264.0355 208.7980
  A 12.70 7.68 107.2 0 0 252.9435 218.6590
  A 12.70 7.68 107.2 0 0 256.5245 233.0620"
/>
<path stroke="#ffdcdb" vector-effect="non-scaling-stroke" d="
  M 47.02 238.50
  L 41.38 236.66"
/>
<path stroke="#a281d3" vector-effect="non-scaling-stroke" d="
  M 166.10 266.54
  Q 132.11 266.48 98.99 266.50
  Q 95.10 266.50 93.06 268.91"
/>
<path stroke="#8c64a4" vector-effect="non-scaling-stroke" d="
  M 93.06 268.91
  L 31.57 268.63"
/>
<path stroke="#302cc0" vector-effect="non-scaling-stroke" d="
  M 161.46 276.95
  Q 161.18 277.29 160.75 277.28
  C 142.50 277.22 124.20 276.99 105.96 277.45
  C 100.55 277.59 89.57 278.77 93.06 268.91"
/>
<path stroke="#8c64a4" vector-effect="non-scaling-stroke" d="
  M 209.43 277.73
  Q 193.04 288.44 187.53 305.03
  Q 183.52 317.10 181.91 332.86"
/>
<path stroke="#ffaeac" vector-effect="non-scaling-stroke" d="
  M 225.51 277.36
  Q 229.35 279.93 231.52 283.23
  Q 233.25 285.87 235.22 290.02
  Q 251.07 323.53 263.25 357.00"
/>
</g>
<path fill="#13097b" d="
  M 190.87 49.75
  L 191.30 42.17
  Q 191.33 41.68 191.06 41.27
  C 180.55 24.71 164.70 32.59 155.33 44.56
  A 1.08 1.08 0.0 0 1 153.90 44.80
  Q 153.63 44.63 153.38 44.12
  Q 153.21 43.78 153.26 43.32
  Q 153.44 41.74 153.50 40.14
  C 153.64 36.46 156.87 32.51 153.83 29.04
  Q 150.88 25.67 145.94 27.86
  Q 145.58 27.74 145.29 27.42
  Q 144.89 26.99 145.30 26.57
  L 145.51 26.36
  Q 145.73 26.14 145.67 25.83
  L 143.70 15.75
  A 1.63 1.62 -17.7 0 0 141.44 14.59
  Q 135.96 17.06 132.21 22.34
  C 129.59 26.03 128.17 31.37 126.45 35.95
  C 125.38 38.81 124.20 39.15 121.84 37.12
  Q 111.16 27.97 105.43 18.88
  L 111.38 16.87
  Q 111.88 16.71 112.17 16.28
  C 122.38 1.48 137.18 -5.82 152.91 7.81
  A 0.88 0.87 -34.4 0 0 153.79 7.97
  C 162.62 4.58 170.83 1.86 179.73 1.98
  C 195.51 2.19 206.47 12.66 209.27 28.25
  C 211.57 41.02 202.92 48.96 190.87 49.75
  Z"
/>
<path fill="#1a0f91" d="
  M 145.94 27.86
  C 142.80 31.13 142.23 36.27 142.20 40.63
  A 1.50 1.50 0.0 0 1 142.00 41.34
  L 138.52 47.29
  Q 126.25 69.84 115.06 91.56
  Q 114.80 92.06 114.04 92.06
  Q 113.34 91.87 113.06 92.06
  Q 76.53 118.13 48.81 153.54
  Q 48.78 153.41 48.76 153.28
  Q 48.74 153.21 48.68 153.19
  C 34.80 148.34 23.32 132.34 30.46 117.64
  C 34.65 109.00 33.78 100.71 25.44 95.07
  C 9.80 84.49 11.06 68.84 19.98 54.50
  C 31.54 35.91 52.19 32.13 72.17 35.84
  C 79.61 37.22 83.95 34.30 87.57 28.33
  Q 93.15 19.14 105.43 18.88
  Q 111.16 27.97 121.84 37.12
  C 124.20 39.15 125.38 38.81 126.45 35.95
  C 128.17 31.37 129.59 26.03 132.21 22.34
  Q 135.96 17.06 141.44 14.59
  A 1.63 1.62 -17.7 0 1 143.70 15.75
  L 145.67 25.83
  Q 145.73 26.14 145.51 26.36
  L 145.30 26.57
  Q 144.89 26.99 145.29 27.42
  Q 145.58 27.74 145.94 27.86
  Z"
/>
<path fill="#feb8b7" d="
  M 190.87 49.75
  C 187.56 62.84 171.69 98.29 151.93 85.58
  Q 137.16 70.42 138.52 47.29
  L 142.00 41.34
  A 1.50 1.50 0.0 0 0 142.20 40.63
  C 142.23 36.27 142.80 31.13 145.94 27.86
  Q 150.88 25.67 153.83 29.04
  C 156.87 32.51 153.64 36.46 153.50 40.14
  Q 153.44 41.74 153.26 43.32
  Q 153.21 43.78 153.38 44.12
  Q 153.63 44.63 153.90 44.80
  A 1.08 1.08 0.0 0 0 155.33 44.56
  C 164.70 32.59 180.55 24.71 191.06 41.27
  Q 191.33 41.68 191.30 42.17
  L 190.87 49.75
  Z"
/>
<path fill="#ffa4a1" d="
  M 138.52 47.29
  Q 137.16 70.42 151.93 85.58
  L 147.56 94.76
  Q 146.04 99.31 143.44 100.46
  C 136.24 103.63 122.21 103.66 115.71 97.54
  Q 113.27 95.23 114.04 92.06
  Q 114.80 92.06 115.06 91.56
  Q 126.25 69.84 138.52 47.29
  Z"
/>
<path fill="#fe7062" d="
  M 114.04 92.06
  Q 113.27 95.23 115.71 97.54
  C 122.21 103.66 136.24 103.63 143.44 100.46
  Q 146.04 99.31 147.56 94.76
  Q 152.25 95.48 153.32 97.92
  C 161.27 116.14 169.41 134.28 175.20 153.32
  C 180.67 171.28 177.93 187.22 165.44 201.71
  Q 144.53 225.96 124.71 245.72
  Q 105.09 249.25 85.03 247.56
  C 72.49 246.50 59.50 242.29 47.02 238.50
  C 54.40 219.63 67.16 200.26 78.33 184.60
  Q 78.48 184.39 78.23 184.47
  Q 78.09 184.51 77.95 184.57
  Q 77.68 184.68 77.47 184.94
  Q 57.79 209.05 41.38 236.66
  L 7.98 226.18
  C 16.87 200.15 31.71 174.95 48.81 153.54
  Q 76.53 118.13 113.06 92.06
  Q 113.34 91.87 114.04 92.06
  Z"
/>
<path fill="#0a0162" d="
  M 243.56 277.33
  L 225.51 277.36
  Q 216.79 276.82 209.43 277.73
  Q 208.49 277.88 208.02 277.45
  A 0.75 0.72 -22.2 0 0 207.51 277.25
  L 162.00 277.25
  Q 161.85 277.25 161.75 277.12
  Q 161.66 277.00 161.46 276.95
  L 166.10 266.54
  L 171.84 254.56
  Q 188.92 217.57 205.94 181.06
  C 209.90 172.57 215.22 168.30 224.80 168.28
  Q 272.67 168.22 320.52 168.25
  C 329.66 168.26 331.60 174.01 328.60 181.71
  Q 311.73 224.98 294.83 268.24
  C 292.36 274.58 288.95 277.23 282.28 277.23
  Q 263.07 277.21 243.56 277.33
  Z
  M 256.5245 233.0620
  A 12.70 7.68 107.2 0 0 267.6165 223.2010
  A 12.70 7.68 107.2 0 0 264.0355 208.7980
  A 12.70 7.68 107.2 0 0 252.9435 218.6590
  A 12.70 7.68 107.2 0 0 256.5245 233.0620
  Z"
/>
<path fill="#ffffff" d="
  M 47.02 238.50
  L 41.38 236.66
  Q 57.79 209.05 77.47 184.94
  Q 77.68 184.68 77.95 184.57
  Q 78.09 184.51 78.23 184.47
  Q 78.48 184.39 78.33 184.60
  C 67.16 200.26 54.40 219.63 47.02 238.50
  Z"
/>
<ellipse fill="#4649ee" cx="0.00" cy="0.00" transform="translate(260.28,220.93) rotate(107.2)" rx="12.70" ry="7.68"/>
<path fill="#feb8b7" d="
  M 7.98 226.18
  L 41.38 236.66
  L 47.02 238.50
  C 59.50 242.29 72.49 246.50 85.03 247.56
  Q 105.09 249.25 124.71 245.72
  Q 124.95 245.83 125.13 245.92
  Q 125.57 246.13 126.03 246.01
  L 155.50 238.01
  A 1.88 1.87 -28.6 0 1 157.38 238.56
  L 171.84 254.56
  L 166.10 266.54
  Q 132.11 266.48 98.99 266.50
  Q 95.10 266.50 93.06 268.91
  L 31.57 268.63
  Q 25.49 267.94 20.00 267.98
  C 15.22 268.02 7.80 262.44 4.42 259.37
  C 0.79 256.08 -0.50 251.56 0.76 247.02
  Q 2.12 242.14 7.98 226.18
  Z"
/>
<path fill="#4649ee" d="
  M 166.10 266.54
  L 161.46 276.95
  Q 161.18 277.29 160.75 277.28
  C 142.50 277.22 124.20 276.99 105.96 277.45
  C 100.55 277.59 89.57 278.77 93.06 268.91
  Q 95.10 266.50 98.99 266.50
  Q 132.11 266.48 166.10 266.54
  Z"
/>
<path fill="#1a0f91" d="
  M 31.57 268.63
  L 93.06 268.91
  C 89.57 278.77 100.55 277.59 105.96 277.45
  C 124.20 276.99 142.50 277.22 160.75 277.28
  Q 161.18 277.29 161.46 276.95
  Q 161.66 277.00 161.75 277.12
  Q 161.85 277.25 162.00 277.25
  L 207.51 277.25
  A 0.75 0.72 -22.2 0 1 208.02 277.45
  Q 208.49 277.88 209.43 277.73
  Q 193.04 288.44 187.53 305.03
  Q 183.52 317.10 181.91 332.86
  Q 174.88 337.02 165.44 340.45
  C 126.39 354.64 81.78 357.53 40.72 353.15
  C 28.71 351.87 7.85 349.02 6.10 333.20
  C 5.49 327.72 5.97 321.71 7.76 316.12
  C 13.07 299.64 22.35 283.92 31.57 268.63
  Z"
/>
<path fill="#feb8b7" d="
  M 225.51 277.36
  Q 229.35 279.93 231.52 283.23
  Q 233.25 285.87 235.22 290.02
  Q 251.07 323.53 263.25 357.00
  L 206.45 357.00
  Q 201.21 341.21 205.19 325.64
  Q 205.41 324.79 204.58 325.08
  L 181.91 332.86
  Q 183.52 317.10 187.53 305.03
  Q 193.04 288.44 209.43 277.73
  Q 216.79 276.82 225.51 277.36
  Z"
/>
<path fill="#ffa4a1" d="
  M 225.51 277.36
  L 243.56 277.33
  L 290.31 357.00
  L 263.25 357.00
  Q 251.07 323.53 235.22 290.02
  Q 233.25 285.87 231.52 283.23
  Q 229.35 279.93 225.51 277.36
  Z"
/>
</svg>
